PathFileType	4	(X/Y/Z)	C:\Users\dbl\Desktop\LZH\BX\Trimmed_bx_n_10_501.trc
DataRate	CameraRate	NumFrames	NumMarkers	Units	OrigDataRate	OrigDataStartFrame	OrigNumFrames
50.00	50.00	      8	43	mm	50.00	183	      1457
Frame#	Time	Top.Head			R.Acromium			L.Acromium			Sternum			R.ASIS			L.ASIS			V.Sacral			R.Thigh.Upper			R.Thigh.Front			R.Thigh.Rear			R.Knee.Lat			R.Knee.Med			R.Shank.Upper			R.Shank.Front			R.Shank.Rear			R.Ankle.Lat			R.Midfoot.Lat			R.Toe.Lat			R.Toe.Tip			R.Toe.Med			R.Ankle.Med			R.Midfoot.Sup			R.Heel			L.Thigh.Upper			L.Thigh.Front			L.Thigh.Rear			L.Knee.Lat			L.Knee.Med			L.Shank.Upper			L.Shank.Front			L.Shank.Rear			L.Ankle.Lat			L.Midfoot.Lat			L.Toe.Lat			L.Toe.Tip			L.Toe.Med			L.Ankle.Med			L.Midfoot.Sup			L.Heel			origin1 front left			origin2 front right			origin 3 back right			origin 4 back leftt			
		X1	Y1	Z1	X2	Y2	Z2	X3	Y3	Z3	X4	Y4	Z4	X5	Y5	Z5	X6	Y6	Z6	X7	Y7	Z7	X8	Y8	Z8	X9	Y9	Z9	X10	Y10	Z10	X11	Y11	Z11	X12	Y12	Z12	X13	Y13	Z13	X14	Y14	Z14	X15	Y15	Z15	X16	Y16	Z16	X17	Y17	Z17	X18	Y18	Z18	X19	Y19	Z19	X20	Y20	Z20	X21	Y21	Z21	X22	Y22	Z22	X23	Y23	Z23	X24	Y24	Z24	X25	Y25	Z25	X26	Y26	Z26	X27	Y27	Z27	X28	Y28	Z28	X29	Y29	Z29	X30	Y30	Z30	X31	Y31	Z31	X32	Y32	Z32	X33	Y33	Z33	X34	Y34	Z34	X35	Y35	Z35	X36	Y36	Z36	X37	Y37	Z37	X38	Y38	Z38	X39	Y39	Z39	X40	Y40	Z40	X41	Y41	Z41	X42	Y42	Z42	X43	Y43	Z43	

183	3.640	-501.53046	249.38409	1777.62537	-524.19189	75.34089	1478.43848	-506.67737	435.15152	1479.03137	-513.71509	254.56824	1286.47876	-634.58472	135.09181	1025.33362	-608.87946	362.41785	1031.02478	-820.37317	261.17105	1068.62769	-708.56097	90.27702	831.42957	-614.71417	144.88466	813.38519	-717.06750	107.21787	717.31726	-712.88403	125.74749	601.40558	-680.45245	232.48151	562.11371	-733.53925	126.10495	535.50671	-652.16125	172.06480	529.52283	-735.88715	117.90355	483.33524	-689.58026	148.74979	211.43384	-609.99835	88.51862	163.73512	-562.98840	66.18459	160.73592	-485.26740	110.69292	158.36450	-530.13129	161.73981	166.74492	-640.68671	224.07423	224.38474	-594.08875	199.47833	175.28003	-720.55475	215.52498	168.88422	-700.46667	443.08414	855.66119	-613.22656	395.70709	818.62512	-712.33398	432.16809	741.10718	-711.30518	410.79541	604.00739	-693.75092	298.92529	569.52863	-721.80493	412.46124	557.12518	-659.96924	357.86420	539.22559	-767.70660	412.97635	487.44824	-684.36139	405.53030	214.45847	-583.07147	452.49695	162.62148	-543.88745	461.96222	156.43199	-483.42984	408.74557	166.47789	-527.15295	373.87524	178.63020	-647.49542	313.28653	213.84561	-596.42896	333.92523	174.38739	-733.87347	332.64502	161.54227	-444.08731	448.42877	146.90062	-450.41263	74.95969	143.82370	-806.64136	82.91897	142.05354	-799.20721	456.99194	145.41171	
184	3.660	-513.36798	249.50760	1782.83020	-530.74585	75.74013	1483.37207	-513.19580	435.94760	1484.41956	-514.97339	255.12924	1291.26843	-631.09271	135.25658	1026.57385	-605.45636	362.85651	1032.23364	-817.51080	261.44196	1067.80481	-705.12732	90.42445	831.84167	-611.30487	144.87872	813.39874	-714.36340	107.40397	717.79907	-710.96191	125.84152	601.69025	-678.34161	232.38989	562.27429	-732.01074	126.33152	535.88171	-650.49011	171.89877	529.56647	-734.70477	118.20017	483.72552	-689.60834	148.77043	211.42897	-610.14069	88.33872	163.57082	-563.05347	66.09901	160.68082	-485.34259	110.65366	158.44510	-530.21820	161.54608	167.05202	-640.52228	223.93213	224.32918	-594.15979	199.36136	175.39014	-720.51941	215.54230	168.81979	-697.03424	443.05249	855.88269	-609.89709	395.88580	818.62811	-709.36292	432.24496	741.48712	-709.16064	410.74149	604.31366	-691.62451	298.82428	569.85333	-719.84760	412.32849	557.43579	-657.95026	357.89072	539.32715	-766.10535	412.67847	487.98004	-684.27795	405.37122	214.42963	-583.07825	452.50427	162.62180	-543.88733	461.99057	156.44176	-483.35248	408.82281	166.47215	-527.14557	373.97131	178.71649	-647.30841	313.25671	213.76266	-596.33075	333.94690	174.39543	-734.06940	332.35919	161.52559	-444.08762	448.42868	146.90292	-450.40930	74.96929	143.81625	-806.64874	82.92444	142.07111	-799.16193	457.01596	145.42041	
185	3.680	-524.95831	249.70763	1787.68445	-537.22729	76.18028	1488.14209	-519.63708	436.72739	1489.45105	-516.16705	255.68163	1295.93079	-627.50494	135.43965	1027.81042	-602.06268	363.39581	1033.41797	-814.57587	261.63739	1067.02832	-701.53931	90.56528	832.24622	-607.70728	144.88843	813.43671	-711.51801	107.58713	718.26648	-708.92267	125.94279	601.96960	-676.19092	232.32471	562.44202	-730.36566	126.57018	536.23657	-648.73907	171.76788	529.59106	-733.40686	118.49689	484.13486	-689.59814	148.80078	211.44627	-610.24481	88.19833	163.43335	-563.11420	66.03548	160.64037	-485.37408	110.63297	158.49434	-530.28833	161.39359	167.27966	-640.33478	223.86870	224.24860	-594.17719	199.27428	175.45804	-720.47815	215.57080	168.79451	-693.51276	442.98926	856.06567	-606.46857	396.03409	818.60742	-706.33057	432.26285	741.83539	-706.94781	410.64502	604.59106	-689.39606	298.74887	570.16888	-717.82727	412.18317	557.73022	-655.87433	357.88339	539.42987	-764.44031	412.40857	488.52411	-684.12256	405.18738	214.41185	-583.08423	452.50302	162.61905	-543.88257	462.02951	156.45261	-483.19800	408.90381	166.46428	-527.08911	373.99945	178.77873	-647.06268	313.15305	213.66553	-596.22424	333.90714	174.30849	-734.20361	332.03693	161.52208	-444.08286	448.42542	146.90556	-450.40540	74.97576	143.80383	-806.64282	82.89992	142.10414	-799.16339	457.00473	145.42865	
186	3.700	-536.25916	250.00055	1792.18359	-543.60516	76.66017	1492.72827	-525.99603	437.48065	1494.11243	-517.29193	256.23053	1300.43982	-623.82233	135.63824	1029.00574	-598.74493	364.05121	1034.61694	-811.52380	261.75949	1066.29285	-697.81171	90.71387	832.63269	-603.94403	144.92018	813.50958	-708.53558	107.77870	718.71155	-706.76099	126.05412	602.25470	-674.00299	232.30531	562.61658	-728.60156	126.81980	536.57135	-646.90314	171.69707	529.58636	-731.98041	118.79559	484.54260	-689.53351	148.83868	211.49100	-610.30011	88.11749	163.34575	-563.16156	65.99752	160.61922	-485.35376	110.62227	158.50186	-530.32623	161.30022	167.40163	-640.11102	223.89288	224.13245	-594.13794	199.22891	175.46790	-720.42297	215.62778	168.82100	-689.93121	442.89716	856.20959	-602.96863	396.15091	818.56329	-703.26166	432.19620	742.13672	-704.67621	410.51331	604.83966	-687.07104	298.67493	570.45502	-715.76044	412.02347	558.00201	-653.76532	357.83914	539.52380	-762.71942	412.16492	489.06033	-683.88678	404.98340	214.41156	-583.09113	452.49719	162.61334	-543.87640	462.07806	156.46028	-482.96255	408.98691	166.45360	-526.98010	373.95215	178.80502	-646.76508	312.97296	213.55490	-596.11346	333.80341	174.13367	-734.25439	331.71985	161.53171	-444.07193	448.42084	146.90773	-450.40073	74.97780	143.79140	-806.62402	82.85089	142.14543	-799.21661	456.95853	145.43188	
187	3.720	-547.24023	250.40016	1796.32300	-549.84003	77.19115	1497.09473	-532.27289	438.21106	1498.41504	-518.34497	256.79184	1304.77026	-620.05341	135.84851	1030.10522	-595.54034	364.82565	1035.86121	-808.33563	261.82428	1065.58765	-693.98041	90.88219	832.98932	-600.07056	144.98509	813.61780	-705.44220	107.98742	719.12982	-704.49188	126.17836	602.55347	-671.78809	232.35211	562.80005	-726.73676	127.07784	536.88861	-644.99091	171.70775	529.55591	-730.43390	119.09827	484.92877	-689.40643	148.88210	211.56717	-610.30341	88.10455	163.32426	-563.18640	65.98889	160.62177	-485.27881	110.61456	158.46347	-530.32367	161.27750	167.40523	-639.84705	223.99963	223.98375	-594.04468	199.23531	175.40726	-720.34753	215.72803	168.90483	-686.32196	442.77951	856.31818	-599.43567	396.22949	818.49915	-700.17603	432.04077	742.38251	-702.36530	410.35788	605.06305	-684.68854	298.57761	570.70142	-713.67084	411.84830	558.24652	-651.65253	357.75818	539.60040	-760.96033	411.94482	489.57086	-683.58148	404.75613	214.42711	-583.09705	452.48965	162.60658	-543.86737	462.13513	156.45868	-482.65616	409.07098	166.43640	-526.81982	373.82504	178.78719	-646.44061	312.74185	213.42508	-595.99951	333.64175	173.89267	-734.22021	331.44522	161.55164	-444.05536	448.42014	146.90939	-450.39670	74.97517	143.78398	-806.59528	82.78769	142.18683	-799.31165	456.88855	145.42580	
188	3.740	-557.88568	250.91537	1800.10059	-555.89221	77.79224	1501.19641	-538.47144	438.93021	1502.38965	-519.32672	257.38846	1308.90283	-616.22137	136.06863	1031.05737	-592.47150	365.70654	1037.16492	-805.02527	261.85275	1064.90356	-690.09784	91.07355	833.30585	-596.16394	145.09384	813.75159	-702.28357	108.21360	719.51953	-702.14941	126.31441	602.86536	-669.56769	232.47823	562.99341	-724.80713	127.33882	537.19226	-643.02582	171.81013	529.51575	-728.79712	119.40258	485.28229	-689.22034	148.93123	211.67534	-610.25946	88.15484	163.37317	-563.18347	66.01135	160.64908	-485.15430	110.60538	158.38324	-530.28278	161.32527	167.29671	-639.54944	224.17171	223.81830	-593.90674	199.29790	175.27321	-720.24957	215.87704	169.04137	-682.72186	442.64322	856.39893	-595.91833	396.26227	818.42181	-697.09668	431.81372	742.57312	-700.04797	410.19138	605.26630	-682.31445	298.44431	570.90674	-711.59137	411.65802	558.46136	-649.57068	357.64517	539.65332	-759.19342	411.74518	490.04474	-683.23804	404.49567	214.44910	-583.09930	452.48230	162.60129	-543.85175	462.19986	156.44194	-482.30328	409.15427	166.40839	-526.61578	373.62216	178.72395	-646.12817	312.50879	213.26762	-595.88165	333.43500	173.61678	-734.11847	331.23431	161.57668	-444.03510	448.43042	146.91182	-450.39560	74.96895	143.78529	-806.56128	82.72237	142.22057	-799.42566	456.81302	145.40932	
189	3.760	-568.19250	251.54648	1803.51880	-561.73236	78.48114	1504.99133	-544.59760	439.64841	1506.07556	-520.24426	258.04373	1312.82764	-612.36902	136.29817	1031.83789	-589.54456	366.66660	1038.52319	-801.63776	261.86349	1064.23706	-686.22552	91.27952	833.57703	-592.30701	145.25107	813.89459	-699.11688	108.44592	719.88074	-699.77997	126.45481	603.17871	-667.37463	232.68094	563.19330	-722.85699	127.59294	537.48676	-641.04492	171.99658	529.48578	-727.11481	119.69907	485.60492	-688.98938	148.99039	211.81076	-610.17950	88.25335	163.48326	-563.15338	66.06274	160.69713	-484.99344	110.59276	158.27303	-530.21472	161.43005	167.10144	-639.23236	224.38457	223.65926	-593.74036	199.41245	175.07608	-720.13220	216.06761	169.21588	-679.17242	442.50140	856.46124	-592.47083	396.24670	818.33984	-694.05640	431.54694	742.71759	-697.76813	410.02429	605.45343	-680.02393	298.28088	571.07416	-709.56079	411.45483	558.64783	-647.55695	357.50812	539.67810	-757.45850	411.56207	490.47958	-682.90070	404.19092	214.46268	-583.09662	452.47650	162.59952	-543.82654	462.27106	156.40700	-481.93799	409.23355	166.36694	-526.38232	373.35889	178.62183	-645.87067	312.33115	213.07712	-595.75897	333.19907	173.33929	-733.97760	331.08868	161.60117	-444.01312	448.45731	146.91684	-450.39957	74.96130	143.79668	-806.52673	82.66502	142.24115	-799.53143	456.75006	145.38551	
190	3.780	-578.16516	252.28168	1806.58655	-567.34900	79.26540	1508.45422	-550.65887	440.36722	1509.51001	-521.11536	258.77350	1316.54285	-608.55664	136.53459	1032.46411	-586.75165	367.66901	1039.91687	-798.23883	261.86746	1063.59229	-682.42535	91.48170	833.80450	-588.57202	145.45132	814.02899	-695.99969	108.66262	720.21436	-697.43286	126.58649	603.47375	-665.24835	232.93793	563.39087	-720.92896	127.82594	537.77594	-639.09277	172.23882	529.47791	-725.43500	119.97215	485.90845	-688.73401	149.06813	211.96355	-610.07831	88.37958	163.63477	-563.10260	66.13635	160.75743	-484.81506	110.57639	158.14928	-530.13452	161.56827	166.85799	-638.91156	224.61261	223.52901	-593.56635	199.56551	174.83893	-720.00293	216.28113	169.40692	-675.71716	442.37222	856.51367	-589.14490	396.18939	818.26154	-691.09723	431.27582	742.83057	-695.57178	409.86380	605.62689	-677.88110	298.10867	571.20636	-707.61615	411.24335	558.81201	-645.64514	357.35474	539.67352	-755.79706	411.39081	490.87988	-682.61310	403.83881	214.45326	-583.08978	452.47327	162.60210	-543.79218	462.34641	156.35497	-481.59558	409.30429	166.31219	-526.13843	373.06100	178.49385	-645.70111	312.25351	212.85605	-595.63239	332.94925	173.08772	-733.82703	330.99487	161.62097	-443.99036	448.50076	146.92560	-450.40939	74.95480	143.81664	-806.49542	82.62110	142.24672	-799.60663	456.71082	145.36002	
